<svg version="1.1" xmlns="http://www.w3.org/2000/svg" viewBox="0 0 1368.370295404849 768.6538269844131" width="4105.110886214547" height="2305.961480953239">
  <!-- svg-source:excalidraw -->
  
  <defs>
    <style class="style-fonts">
      @font-face {
        font-family: "Virgil";
        src: url("https://excalidraw.com/Virgil.woff2");
      }
      @font-face {
        font-family: "Cascadia";
        src: url("https://excalidraw.com/Cascadia.woff2");
      }
      @font-face {
        font-family: "Assistant";
        src: url("https://excalidraw.com/Assistant-Regular.woff2");
      }
    </style>
    
  </defs>
  <g stroke-linecap="round"><g transform="translate(53.45851278173831 398.8904986505304) rotate(0 515.2179854733142 -115.80019625421843)"><path d="M0.64 0.07 C11.67 0.18, 40.47 1.21, 65.81 0.24 C91.15 -0.73, 128.11 -3.58, 152.67 -5.76 C177.24 -7.93, 191.2 -10.25, 213.19 -12.81 C235.17 -15.36, 259.69 -18.28, 284.61 -21.09 C309.52 -23.9, 336.88 -24.81, 362.69 -29.66 C388.5 -34.52, 413.93 -43.49, 439.47 -50.22 C465.02 -56.95, 490.51 -64.44, 515.96 -70.04 C541.41 -75.65, 566.35 -77.97, 592.14 -83.86 C617.94 -89.76, 641.79 -97.95, 670.72 -105.41 C699.66 -112.87, 737.01 -120.08, 765.76 -128.63 C794.51 -137.19, 814.4 -145.23, 843.25 -156.72 C872.09 -168.22, 907.48 -184.98, 938.83 -197.62 C970.18 -210.27, 1016.25 -226.89, 1031.34 -232.59" stroke="#8cd000" stroke-width="2.5" fill="none" stroke-dasharray="8 10"></path></g></g><mask></mask><g stroke-linecap="round"><g transform="translate(55.93552232728308 458.3387277436051) rotate(0 297.2411454653735 -82.97981977575012)"><path d="M-0.16 1.09 C10.94 -1.38, 40.88 -9.32, 66.64 -14.5 C92.39 -19.67, 129.54 -24.8, 154.38 -29.96 C179.23 -35.12, 194.01 -40.43, 215.69 -45.45 C237.37 -50.48, 260.64 -54.37, 284.49 -60.12 C308.33 -65.86, 333.7 -72.51, 358.75 -79.92 C383.81 -87.34, 408.57 -93.36, 434.82 -104.59 C461.07 -115.81, 489.71 -137.2, 516.26 -147.28 C542.82 -157.36, 581.26 -162.03, 594.15 -165.08" stroke="#8cd000" stroke-width="2.5" fill="none" stroke-dasharray="1.5 8"></path></g></g><mask></mask><g stroke-linecap="round"><g transform="translate(30.369995117187557 695.5072840294616) rotate(0 548.5 0)"><path d="M0.09 -0.08 C182.65 -0.11, 913.42 0.04, 1096.31 0.17 M-1.32 -1.16 C181.54 -1.01, 915.63 1.81, 1098.66 1.79" stroke="#8cd000" stroke-width="2" fill="none"></path></g><g transform="translate(30.369995117187557 695.5072840294616) rotate(0 548.5 0)"><path d="M1070.45 11.99 C1081.03 6.93, 1092.18 4.9, 1098.66 1.79 M1070.45 11.99 C1080.31 9.27, 1090.88 4.85, 1098.66 1.79" stroke="#8cd000" stroke-width="2" fill="none"></path></g><g transform="translate(30.369995117187557 695.5072840294616) rotate(0 548.5 0)"><path d="M1070.49 -8.53 C1081.12 -5.77, 1092.25 0.01, 1098.66 1.79 M1070.49 -8.53 C1080.45 -3.92, 1091 -1.01, 1098.66 1.79" stroke="#8cd000" stroke-width="2" fill="none"></path></g></g><mask></mask><g stroke-linecap="round"><g transform="translate(54.36999511718756 733.5072840294616) rotate(0 2.842170943040401e-14 -341)"><path d="M-1.09 -0.46 C-1.3 -114.39, -0.91 -569.43, -0.89 -683.02 M0.53 -1.74 C0.67 -115.61, 1.21 -568.87, 1.35 -682.01" stroke="#8cd000" stroke-width="2" fill="none"></path></g><g transform="translate(54.36999511718756 733.5072840294616) rotate(0 2.842170943040401e-14 -341)"><path d="M11.58 -653.81 C7.33 -664.63, 3.04 -673.99, 1.35 -682.01 M11.58 -653.81 C8.54 -661.94, 5.3 -670.11, 1.35 -682.01" stroke="#8cd000" stroke-width="2" fill="none"></path></g><g transform="translate(54.36999511718756 733.5072840294616) rotate(0 2.842170943040401e-14 -341)"><path d="M-8.94 -653.84 C-6.47 -664.46, -4.03 -673.82, 1.35 -682.01 M-8.94 -653.84 C-5.76 -661.83, -2.8 -669.99, 1.35 -682.01" stroke="#8cd000" stroke-width="2" fill="none"></path></g></g><mask></mask><g transform="translate(913.8603767999209 720.6538269844131) rotate(0 104.60639953613293 19)"><text x="0" y="0" font-family="Virgil, Segoe UI Emoji" font-size="30.40000000000004px" fill="#8cd000" text-anchor="start" style="white-space: pre;" direction="ltr" dominant-baseline="text-before-edge">Messzeitpunkt</text></g><g transform="translate(-179.89680664062502 273.77408578727443) rotate(270 206.89680664062507 17)"><text x="0" y="0" font-family="Virgil, Segoe UI Emoji" font-size="27.200000000000006px" fill="#8cd000" text-anchor="start" style="white-space: pre;" direction="ltr" dominant-baseline="text-before-edge">Anzahl richtig gelesener Wörter</text></g><g stroke-linecap="round"><g transform="translate(55.36999511718756 551.5072840294616) rotate(0 516.0674814794609 -95.47700954554483)"><path d="M0 0 C23.85 0.97, 49.08 0.61, 76.53 -1.52 M0 0 C28.12 -0.75, 57 -1.43, 76.53 -1.52 M76.53 -1.52 C93.38 -0.19, 113.93 -2.6, 149.2 -1.38 M76.53 -1.52 C95.76 -2.17, 113.76 -1.24, 149.2 -1.38 M149.2 -1.38 C163.58 -4.02, 179.74 -4.63, 225.39 -9.23 M149.2 -1.38 C167.89 -4.32, 188.69 -5.06, 225.39 -9.23 M225.39 -9.23 C272.78 -19.9, 321.64 -28.95, 366.89 -35.66 M225.39 -9.23 C281.01 -18.06, 336.8 -29.08, 366.89 -35.66 M366.89 -35.66 C389.52 -41.61, 412.13 -48.33, 437.47 -55.47 M366.89 -35.66 C388.61 -41.34, 408.04 -47.62, 437.47 -55.47 M437.47 -55.47 C455.15 -60.16, 470.86 -69.32, 500.79 -79.71 M437.47 -55.47 C449.71 -60.03, 464.67 -65.02, 500.79 -79.71 M500.79 -79.71 C528.82 -86.31, 552.85 -89.55, 566.55 -93.57 M500.79 -79.71 C514.11 -82.54, 527.55 -84.17, 566.55 -93.57 M566.55 -93.57 C583.63 -92.04, 603.22 -91.47, 648.5 -92.85 M566.55 -93.57 C596.28 -91.85, 626.43 -92.34, 648.5 -92.85 M648.5 -92.85 C676.45 -95.44, 705.38 -102.17, 733.69 -103.28 M648.5 -92.85 C682.63 -97.75, 715.64 -101.26, 733.69 -103.28 M733.69 -103.28 C765.89 -107.47, 801.18 -116.41, 824.4 -118.81 M733.69 -103.28 C753.51 -107.6, 775.39 -111.53, 824.4 -118.81 M824.4 -118.81 C849.32 -128.14, 878.07 -134.9, 923.41 -150.05 M824.4 -118.81 C862.96 -131.39, 903.52 -143.29, 923.41 -150.05 M923.41 -150.05 C952.24 -163.09, 982.37 -173.09, 1032.13 -190.95 M923.41 -150.05 C952.59 -161.52, 981.56 -172.88, 1032.13 -190.95" stroke="#8cd000" stroke-width="2" fill="none"></path></g></g><mask></mask><g stroke-linecap="round"><g transform="translate(124.36999511718756 698.5072840294616) rotate(0 -0.5 9.5)"><path d="M-0.3 -0.15 C-0.56 3.02, -1.19 16.18, -1.28 19.38 M0.54 -0.71 C0.45 2.29, 0.09 15.21, -0.19 18.61" stroke="#8cd000" stroke-width="2" fill="none"></path></g></g><mask></mask><g stroke-linecap="round"><g transform="translate(200.36999511718756 697.5072840294616) rotate(0 0 8.5)"><path d="M-0.48 0.42 C-0.42 3.32, -0.18 14.53, -0.17 17.24 M0.28 0.16 C0.29 2.9, -0.76 13.57, -0.69 16.4" stroke="#8cd000" stroke-width="2" fill="none"></path></g></g><mask></mask><g stroke-linecap="round"><g transform="translate(268.04059184890554 696.9860583028461) rotate(0 0 9.493935506681282)"><path d="M0.36 0.21 C0.31 3.35, -0.15 15.93, -0.15 19.03 M-0.11 -0.16 C-0.27 3.06, -0.72 16.51, -0.67 19.74" stroke="#8cd000" stroke-width="2" fill="none"></path></g></g><mask></mask><g stroke-linecap="round"><g transform="translate(339.0641722392132 700.5072840294616) rotate(0 -0.25151612332967943 5.993935506681282)"><path d="M-0.02 -0.11 C-0.15 -0.45, -0.32 -3.63, -0.31 -1.53 C-0.31 0.58, 0.02 10.16, 0.03 12.54 M-0.69 -0.64 C-0.69 -0.7, 0.65 -3.35, 0.76 -1.1 C0.86 1.16, 0.08 10.54, -0.05 12.9" stroke="#8cd000" stroke-width="2" fill="none"></path></g></g><mask></mask><g stroke-linecap="round"><g transform="translate(411.29185703197066 697.7518751114653) rotate(0 0 8.5)"><path d="M0.01 -0.37 C-0.01 2.51, -0.19 14.39, -0.13 17.37 M-0.65 0.63 C-0.76 3.35, -0.77 13.92, -0.62 16.6" stroke="#8cd000" stroke-width="2" fill="none"></path></g></g><mask></mask><g stroke-linecap="round"><g transform="translate(486.2587104483295 696.6078529669184) rotate(0 0 8.5)"><path d="M0.13 -0.17 C0.1 2.62, 0.28 13.75, 0.33 16.61 M-0.47 -0.73 C-0.58 2.13, -0.06 14.06, 0.07 17.11" stroke="#8cd000" stroke-width="2" fill="none"></path></g></g><mask></mask><g stroke-linecap="round"><g transform="translate(716.2084050522683 698.0681513486421) rotate(0 0 8.5)"><path d="M0.4 -0.23 C0.46 2.7, 0.29 14.37, 0.26 17.17 M-0.06 -0.83 C-0.04 1.97, -0.05 13.33, -0.04 16.29" stroke="#8cd000" stroke-width="2" fill="none"></path></g></g><mask></mask><g stroke-linecap="round"><g transform="translate(556.0374500251223 696.8349699111209) rotate(0 0 7.493935506681282)"><path d="M0.03 -0.47 C-0.02 2.18, -0.22 12.89, -0.15 15.47 M-0.61 0.47 C-0.76 3.02, -0.81 12.23, -0.66 14.75" stroke="#8cd000" stroke-width="2" fill="none"></path></g></g><mask></mask><g stroke-linecap="round"><g transform="translate(646.6060124016992 699.7856895068629) rotate(0 0 7.493935506681282)"><path d="M-0.27 0.29 C-0.22 2.74, 0.47 12.36, 0.5 14.74 M0.59 -0.03 C0.6 2.48, 0.5 12.82, 0.33 15.31" stroke="#8cd000" stroke-width="2" fill="none"></path></g></g><mask></mask><g stroke-linecap="round"><g transform="translate(811.1374737237288 697.8956876209015) rotate(0 0 8.5)"><path d="M0.02 -0.23 C-0.02 2.56, -0.47 14.31, -0.51 17.23 M-0.64 -0.83 C-0.49 2.03, 0.46 13.52, 0.47 16.39" stroke="#8cd000" stroke-width="2" fill="none"></path></g></g><mask></mask><g stroke-linecap="round"><g transform="translate(901.2420281928919 698.4471403071922) rotate(0 0 8.5)"><path d="M-0.28 0.38 C-0.28 3.35, -0.4 14.46, -0.37 17.3 M0.58 0.1 C0.79 2.95, 0.86 13.74, 0.68 16.49" stroke="#8cd000" stroke-width="2" fill="none"></path></g></g><mask></mask><g stroke-linecap="round"><g transform="translate(994.8505273011547 698.7332039238045) rotate(0 0 8.5)"><path d="M0.13 -0.12 C0.14 2.65, -0.54 13.72, -0.49 16.62 M-0.46 -0.66 C-0.25 2.18, 0.37 14.28, 0.49 17.13" stroke="#8cd000" stroke-width="2" fill="none"></path></g></g><mask></mask><g stroke-linecap="round"><g transform="translate(1084.878775217601 696.5988081786651) rotate(0 0 8.5)"><path d="M-0.06 0.46 C-0.07 3.29, 0.31 14.37, 0.38 17.16 M-0.75 0.23 C-0.84 2.87, -0.02 13.61, 0.15 16.27" stroke="#8cd000" stroke-width="2" fill="none"></path></g></g><mask></mask><g stroke-linecap="round"><g transform="translate(57.17402710005547 322.10320273864227) rotate(0 513.3602283141556 -156.05160136932113)"><path d="M0 0 C15.42 -2.92, 31.6 -3.93, 66.88 -6.19 M0 0 C22.15 -1.12, 45.39 -4.24, 66.88 -6.19 M66.88 -6.19 C89.54 -8.57, 114.19 -10.04, 136.24 -8.67 M66.88 -6.19 C92.68 -6.99, 121.08 -7.65, 136.24 -8.67 M136.24 -8.67 C160.96 -8.12, 189.5 -12.19, 224.17 -11.15 M136.24 -8.67 C171.2 -10.34, 204.82 -11.74, 224.17 -11.15 M224.17 -11.15 C248.59 -14.72, 270.88 -18, 296 -23.53 M224.17 -11.15 C251.65 -16.71, 278.73 -19.98, 296 -23.53 M296 -23.53 C320.26 -26.86, 342.77 -35.52, 375.27 -40.87 M296 -23.53 C317.09 -27.6, 339.73 -33.55, 375.27 -40.87 M375.27 -40.87 C396.75 -46.64, 419.09 -52.71, 454.53 -64.4 M375.27 -40.87 C394.04 -46.47, 413.85 -52.18, 454.53 -64.4 M454.53 -64.4 C475.65 -68.31, 497.52 -70.55, 513.98 -74.31 M454.53 -64.4 C477.57 -67.52, 499.71 -71.3, 513.98 -74.31 M513.98 -74.31 C528.28 -83.95, 545.28 -93.41, 577.14 -110.23 M513.98 -74.31 C527.36 -83.09, 540.63 -89.61, 577.14 -110.23 M577.14 -110.23 C602.04 -121.2, 625.36 -131.21, 661.36 -144.91 M577.14 -110.23 C594.05 -116.48, 611.39 -125.05, 661.36 -144.91 M661.36 -144.91 C678.95 -152.22, 697.43 -155.39, 746.82 -173.39 M661.36 -144.91 C684 -152.12, 705.54 -160.87, 746.82 -173.39 M746.82 -173.39 C777.17 -189.71, 807.08 -210.5, 827.32 -219.22 M746.82 -173.39 C777.58 -189.92, 807.74 -207.11, 827.32 -219.22 M827.32 -219.22 C844.87 -229.3, 866.25 -239.76, 916.49 -263.8 M827.32 -219.22 C849.19 -229.69, 870.13 -240.48, 916.49 -263.8 M916.49 -263.8 C950.35 -277.65, 979.41 -289.96, 1026.72 -312.1 M916.49 -263.8 C939.86 -273.16, 961.56 -282.53, 1026.72 -312.1" stroke="#8cd000" stroke-width="2" fill="none"></path></g></g><mask></mask><g stroke-linecap="round"><g transform="translate(1081.417474182822 10) rotate(0 0 0)"><path d="M0 0 C0 0, 0 0, 0 0 M0 0 C0 0, 0 0, 0 0" stroke="#8cd000" stroke-width="2" fill="none"></path></g></g><mask></mask><g stroke-linecap="round" transform="translate(49.74299846342103 393.7899366044894) rotate(0 4.954019091089549 5.573271477475714)"><path d="M2.48 0 C3.46 -0.22, 6.04 0.16, 7.43 0 C8.28 1.98, 7.87 -1.1, 9.91 2.48 C10.26 5.45, 9.26 6.51, 9.91 8.67 C10.26 7.77, 7.72 10.36, 7.43 11.15 C6.23 11.6, 4.42 11.57, 2.48 11.15 C-0.11 10.33, 1.13 12.08, 0 8.67 C0.54 7.5, -0.28 5.12, 0 2.48 C1.53 -1.63, 2.51 1.12, 2.48 0" stroke="none" stroke-width="0" fill="#8cd000"></path><path d="M2.48 0 C4.28 0.18, 5.86 -0.17, 7.43 0 M2.48 0 C4.48 0.02, 6.44 0.09, 7.43 0 M7.43 0 C8.23 -0.24, 9.99 1.52, 9.91 2.48 M7.43 0 C8.21 -0.64, 11.05 0.82, 9.91 2.48 M9.91 2.48 C9.76 4.46, 9.71 6.56, 9.91 8.67 M9.91 2.48 C9.85 4.93, 9.83 7.09, 9.91 8.67 M9.91 8.67 C10.01 11.15, 9.99 11.5, 7.43 11.15 M9.91 8.67 C10.47 10.26, 9.22 10.76, 7.43 11.15 M7.43 11.15 C6.15 11.26, 4.78 11.01, 2.48 11.15 M7.43 11.15 C6.17 11.04, 5 11.03, 2.48 11.15 M2.48 11.15 C0.56 11.57, -0.16 11.04, 0 8.67 M2.48 11.15 C0.33 11.16, -0.99 10.81, 0 8.67 M0 8.67 C0 6.86, 0.11 5.7, 0 2.48 M0 8.67 C0.04 6.79, -0.12 4.7, 0 2.48 M0 2.48 C0.92 1.01, 0.03 0.97, 2.48 0 M0 2.48 C0.3 1.26, -0.04 0.68, 2.48 0" stroke="#8cd000" stroke-width="2" fill="none"></path></g><g stroke-linecap="round" transform="translate(117.86076096590256 394.4091889908756) rotate(0 4.954019091089549 5.573271477475714)"><path d="M2.48 0 C3.04 0.56, 3.9 -0.45, 7.43 0 C8.98 1.76, 9.26 2.62, 9.91 2.48 C10.07 4.12, 9.98 6.58, 9.91 8.67 C8.03 11.85, 9.72 10.93, 7.43 11.15 C6.31 10.62, 5.11 10.83, 2.48 11.15 C-0.91 10.32, 1.6 8.44, 0 8.67 C0.69 6.15, -0.56 4.72, 0 2.48 C0.38 1.74, 0.81 0.81, 2.48 0" stroke="none" stroke-width="0" fill="#8cd000"></path><path d="M2.48 0 C4.17 -0.03, 6.16 -0.25, 7.43 0 M2.48 0 C4.06 0.08, 5.5 0, 7.43 0 M7.43 0 C9.77 0.34, 10.86 1.65, 9.91 2.48 M7.43 0 C10.03 -0.68, 10.7 1.82, 9.91 2.48 M9.91 2.48 C9.83 3.99, 10.13 5.05, 9.91 8.67 M9.91 2.48 C9.88 4.28, 9.86 5.96, 9.91 8.67 M9.91 8.67 C9.18 11.29, 9.64 11.01, 7.43 11.15 M9.91 8.67 C9.72 10.56, 8.55 10.81, 7.43 11.15 M7.43 11.15 C5.6 11.24, 4.35 11.11, 2.48 11.15 M7.43 11.15 C5.83 11.17, 4.23 11.2, 2.48 11.15 M2.48 11.15 C0.84 12, -0.12 10.85, 0 8.67 M2.48 11.15 C1.74 10.36, -0.86 10.15, 0 8.67 M0 8.67 C0.3 6.74, 0.28 5.34, 0 2.48 M0 8.67 C-0.01 7.16, 0.12 5.67, 0 2.48 M0 2.48 C-0.29 0.04, 0.07 -0.52, 2.48 0 M0 2.48 C-0.48 1.76, -0.01 0.93, 2.48 0" stroke="#8cd000" stroke-width="2" fill="none"></path></g><g stroke-linecap="round" transform="translate(200.8405807416528 389.45516989978614) rotate(0 4.954019091089549 5.573271477475714)"><path d="M2.48 0 C3.89 -0.09, 4.67 0.08, 7.43 0 C7.11 0.49, 12.03 3, 9.91 2.48 C10.46 4.24, 10.53 5.34, 9.91 8.67 C7.79 9.94, 8.18 12.01, 7.43 11.15 C5.46 10.67, 4.66 11.58, 2.48 11.15 C1.72 12.28, -1.23 8.81, 0 8.67 C0.04 6.88, 0.57 4.23, 0 2.48 C1.52 0.32, -0.63 1.37, 2.48 0" stroke="none" stroke-width="0" fill="#8cd000"></path><path d="M2.48 0 C3.59 0.21, 4.54 -0.17, 7.43 0 M2.48 0 C3.87 0.03, 5.24 -0.01, 7.43 0 M7.43 0 C9.55 0.47, 9.31 0.5, 9.91 2.48 M7.43 0 C9.04 0.38, 9.67 0.79, 9.91 2.48 M9.91 2.48 C10.07 4.72, 10.05 7.26, 9.91 8.67 M9.91 2.48 C9.82 4.21, 9.78 5.77, 9.91 8.67 M9.91 8.67 C9.87 9.45, 10.02 12.02, 7.43 11.15 M9.91 8.67 C9.52 9.92, 8.9 11.1, 7.43 11.15 M7.43 11.15 C6.04 11.32, 5.34 10.95, 2.48 11.15 M7.43 11.15 C5.69 11.21, 4.21 11.02, 2.48 11.15 M2.48 11.15 C1.8 11.25, 0.77 9.81, 0 8.67 M2.48 11.15 C-0.16 10.95, -0.19 10.93, 0 8.67 M0 8.67 C0.23 6.35, -0.26 3.75, 0 2.48 M0 8.67 C-0.01 7, -0.09 5.51, 0 2.48 M0 2.48 C0.01 1.66, 1.81 0.42, 2.48 0 M0 2.48 C0.05 -0.11, 1.95 -0.62, 2.48 0" stroke="#8cd000" stroke-width="2" fill="none"></path></g><g stroke-linecap="round" transform="translate(262.76581938027215 380.9321794453309) rotate(0 4.954019091089549 5.573271477475714)"><path d="M2.48 0 C4.04 0.45, 5.19 -0.51, 7.43 0 C11.62 0.02, 10.06 1.24, 9.91 2.48 C9.11 3.47, 9.91 6.01, 9.91 8.67 C12.35 11.9, 11.41 13.21, 7.43 11.15 C5.92 11.78, 4.61 11.83, 2.48 11.15 C2.21 11.42, 1.05 11.15, 0 8.67 C0.16 6.55, 0.03 4.42, 0 2.48 C-1.81 -1.6, 0.79 -1.7, 2.48 0" stroke="none" stroke-width="0" fill="#8cd000"></path><path d="M2.48 0 C3.97 -0.13, 5.61 0.19, 7.43 0 M2.48 0 C4.27 -0.08, 6.24 0.1, 7.43 0 M7.43 0 C9.29 0.13, 10.37 1.62, 9.91 2.48 M7.43 0 C8.92 0.67, 9.68 0.18, 9.91 2.48 M9.91 2.48 C10.2 4.43, 10.05 6.78, 9.91 8.67 M9.91 2.48 C9.99 4.86, 9.93 7.15, 9.91 8.67 M9.91 8.67 C10.72 10.52, 8.41 11.62, 7.43 11.15 M9.91 8.67 C9 9.68, 10 10.11, 7.43 11.15 M7.43 11.15 C6.16 11.04, 5.43 11.08, 2.48 11.15 M7.43 11.15 C6.45 11.25, 5.39 11.26, 2.48 11.15 M2.48 11.15 C-0.04 11.36, -0.1 11.03, 0 8.67 M2.48 11.15 C1.48 11.32, 0.47 11, 0 8.67 M0 8.67 C-0.13 7.13, -0.24 5.46, 0 2.48 M0 8.67 C0.13 6.96, -0.11 4.9, 0 2.48 M0 2.48 C0.25 1.46, 1.52 -0.48, 2.48 0 M0 2.48 C-0.13 1.16, 0.87 -1.1, 2.48 0" stroke="#8cd000" stroke-width="2" fill="none"></path></g><g stroke-linecap="round" transform="translate(333.3605914282984 372.26264603592404) rotate(0 4.954019091089549 5.573271477475714)"><path d="M2.48 0 C3.5 -0.17, 5.26 -0.04, 7.43 0 C9.87 -1.7, 10.3 0.87, 9.91 2.48 C10.75 4.29, 9.39 7.79, 9.91 8.67 C12.09 10.99, 8.23 9.52, 7.43 11.15 C5.84 11.38, 3.65 10.47, 2.48 11.15 C0.13 9.19, 1.59 10.46, 0 8.67 C-0.68 6.08, -0.59 4.16, 0 2.48 C-0.97 -0.09, -0.77 -1.7, 2.48 0" stroke="none" stroke-width="0" fill="#8cd000"></path><path d="M2.48 0 C4.24 0.08, 6.32 0.19, 7.43 0 M2.48 0 C3.73 -0.13, 5 0.01, 7.43 0 M7.43 0 C9.29 -0.04, 10.63 0.12, 9.91 2.48 M7.43 0 C8.19 1.12, 9.91 0.89, 9.91 2.48 M9.91 2.48 C9.77 4.14, 9.62 6.4, 9.91 8.67 M9.91 2.48 C10.08 4.52, 9.92 6.17, 9.91 8.67 M9.91 8.67 C10.6 10.19, 10 11.21, 7.43 11.15 M9.91 8.67 C11.04 10.93, 9.2 11.61, 7.43 11.15 M7.43 11.15 C5.73 11.22, 4.25 11.18, 2.48 11.15 M7.43 11.15 C5.52 11.04, 3.5 11.14, 2.48 11.15 M2.48 11.15 C1.04 11.12, 0.02 10.07, 0 8.67 M2.48 11.15 C0.62 11.64, -0.27 9.4, 0 8.67 M0 8.67 C0.22 6.4, 0.22 4.15, 0 2.48 M0 8.67 C0.01 7.14, -0.02 5.73, 0 2.48 M0 2.48 C0.47 0.93, -0.02 -0.24, 2.48 0 M0 2.48 C0.35 0.4, -0.31 1.1, 2.48 0" stroke="#8cd000" stroke-width="2" fill="none"></path></g><g stroke-linecap="round" transform="translate(407.67087779464185 364.8316173992898) rotate(0 4.954019091089549 5.573271477475714)"><path d="M2.48 0 C3.36 0.2, 5.64 0.56, 7.43 0 C8.97 1.28, 11.33 -0.44, 9.91 2.48 C10.4 4.36, 9.2 6.41, 9.91 8.67 C9.64 12.22, 7.57 9.55, 7.43 11.15 C6.21 11.72, 4.36 11.22, 2.48 11.15 C0.77 10.28, 0.48 11.91, 0 8.67 C-0.47 7.24, -0.2 5.88, 0 2.48 C1.05 3.37, 1.83 0.78, 2.48 0" stroke="none" stroke-width="0" fill="#8cd000"></path><path d="M2.48 0 C4.55 0.08, 6.67 0.12, 7.43 0 M2.48 0 C3.86 0.09, 5.13 -0.13, 7.43 0 M7.43 0 C9.07 -0.65, 8.95 0.93, 9.91 2.48 M7.43 0 C9.33 -0.03, 9.93 0.54, 9.91 2.48 M9.91 2.48 C9.67 4.48, 9.74 6.23, 9.91 8.67 M9.91 2.48 C10.04 4.64, 9.98 7.13, 9.91 8.67 M9.91 8.67 C10.05 9.73, 9.04 10.76, 7.43 11.15 M9.91 8.67 C10.45 10.44, 8.11 10.87, 7.43 11.15 M7.43 11.15 C6.03 10.92, 3.95 11.02, 2.48 11.15 M7.43 11.15 C5.98 11.21, 4.47 11.19, 2.48 11.15 M2.48 11.15 C0.84 12.01, 0.69 11.31, 0 8.67 M2.48 11.15 C1.95 10.32, -0.82 11.08, 0 8.67 M0 8.67 C-0.2 6.49, -0.16 3.73, 0 2.48 M0 8.67 C-0.17 6.57, -0.13 4.64, 0 2.48 M0 2.48 C0.05 1.61, -0.02 0.88, 2.48 0 M0 2.48 C-1.06 0.47, -0.12 0.25, 2.48 0" stroke="#8cd000" stroke-width="2" fill="none"></path></g><g stroke-linecap="round" transform="translate(481.9811641609852 346.25404580770385) rotate(0 4.954019091089549 5.573271477475714)"><path d="M2.48 0 C3.93 0.58, 6.79 0.27, 7.43 0 C9.05 0.77, 8.56 -0.16, 9.91 2.48 C10.51 4.06, 9.89 6.13, 9.91 8.67 C8.83 9.78, 8.42 13.4, 7.43 11.15 C5.19 11.22, 4.28 11.19, 2.48 11.15 C2.65 12.04, 1.64 10.7, 0 8.67 C0.61 7.28, 0.82 5.19, 0 2.48 C-0.34 0.16, 0.16 -1.9, 2.48 0" stroke="none" stroke-width="0" fill="#8cd000"></path><path d="M2.48 0 C4.37 0, 6.5 0.19, 7.43 0 M2.48 0 C3.62 0.01, 4.59 -0.02, 7.43 0 M7.43 0 C9.33 -0.65, 10.53 -0.09, 9.91 2.48 M7.43 0 C7.95 0.57, 9.15 0.61, 9.91 2.48 M9.91 2.48 C9.63 4.19, 9.78 5.61, 9.91 8.67 M9.91 2.48 C9.9 3.8, 9.86 4.91, 9.91 8.67 M9.91 8.67 C9.29 10.15, 8.09 11.57, 7.43 11.15 M9.91 8.67 C10.14 10.15, 10.18 10.31, 7.43 11.15 M7.43 11.15 C6.42 10.98, 4.84 11.15, 2.48 11.15 M7.43 11.15 C5.58 11.05, 3.94 11.07, 2.48 11.15 M2.48 11.15 C1.17 11.29, -0.18 10.22, 0 8.67 M2.48 11.15 C-0.2 11.1, 0.31 10.8, 0 8.67 M0 8.67 C-0.31 7.2, -0.18 5.31, 0 2.48 M0 8.67 C-0.08 6.29, 0.17 4.01, 0 2.48 M0 2.48 C-0.41 1.63, -0.1 -0.54, 2.48 0 M0 2.48 C-0.79 1.06, 1.31 0.08, 2.48 0" stroke="#8cd000" stroke-width="2" fill="none"></path></g><g stroke-linecap="round" transform="translate(562.4839743911905 325.1994646705732) rotate(0 4.954019091089549 5.573271477475714)"><path d="M2.48 0 C3.55 0.62, 4.46 0.29, 7.43 0 C6.9 2.58, 7.86 0.61, 9.91 2.48 C10.51 4.78, 9.92 6.59, 9.91 8.67 C10.96 8.02, 9.67 10.82, 7.43 11.15 C6.31 11.46, 4.78 10.72, 2.48 11.15 C1.63 9.38, 2.23 9.44, 0 8.67 C-0.24 6, 0.75 4.38, 0 2.48 C-0.88 0.52, 1.18 -2.21, 2.48 0" stroke="none" stroke-width="0" fill="#8cd000"></path><path d="M2.48 0 C4.15 -0.15, 5.47 0.1, 7.43 0 M2.48 0 C3.59 -0.12, 4.8 -0.06, 7.43 0 M7.43 0 C10 0.01, 9.5 1.63, 9.91 2.48 M7.43 0 C8.02 -0.63, 9.12 1.06, 9.91 2.48 M9.91 2.48 C10.19 4.8, 9.72 7.02, 9.91 8.67 M9.91 2.48 C9.97 4.87, 9.86 7.33, 9.91 8.67 M9.91 8.67 C9.81 10.75, 9.83 11.28, 7.43 11.15 M9.91 8.67 C9.89 11.32, 8.61 10.91, 7.43 11.15 M7.43 11.15 C6.29 11.02, 4.58 11.21, 2.48 11.15 M7.43 11.15 C5.5 11.24, 3.5 11.12, 2.48 11.15 M2.48 11.15 C-0.15 10.5, 0.66 10.62, 0 8.67 M2.48 11.15 C1.89 10.83, -0.15 10.03, 0 8.67 M0 8.67 C0.03 7.03, 0.19 5.33, 0 2.48 M0 8.67 C0.11 6.74, -0.03 4.64, 0 2.48 M0 2.48 C0.74 0.15, 0.15 -0.77, 2.48 0 M0 2.48 C-0.6 0.14, 0.03 1.03, 2.48 0" stroke="#8cd000" stroke-width="2" fill="none"></path></g><g stroke-linecap="round" transform="translate(640.5097750758509 307.8603978517598) rotate(0 4.954019091089549 5.573271477475714)"><path d="M2.48 0 C2.93 -0.11, 4.32 0.23, 7.43 0 C6.86 -1.29, 10.04 2.92, 9.91 2.48 C9.44 3.74, 10.64 5.95, 9.91 8.67 C12.32 8.91, 9.25 11.52, 7.43 11.15 C6.89 11.51, 5.33 10.79, 2.48 11.15 C2.16 13.6, 0.6 12.67, 0 8.67 C-0.22 7.77, 0.64 5.41, 0 2.48 C2.01 2.03, 1.95 -2.02, 2.48 0" stroke="none" stroke-width="0" fill="#8cd000"></path><path d="M2.48 0 C4.58 0.04, 6.47 -0.01, 7.43 0 M2.48 0 C3.49 -0.07, 4.65 -0.09, 7.43 0 M7.43 0 C8.41 -0.77, 9.38 0.23, 9.91 2.48 M7.43 0 C8.29 1.03, 8.91 0.3, 9.91 2.48 M9.91 2.48 C9.85 4.11, 9.65 5.8, 9.91 8.67 M9.91 2.48 C10 3.82, 10.01 5.32, 9.91 8.67 M9.91 8.67 C9.86 11.02, 9.49 10.26, 7.43 11.15 M9.91 8.67 C10.17 10.18, 8.83 10.88, 7.43 11.15 M7.43 11.15 C6.17 11.01, 4.9 10.99, 2.48 11.15 M7.43 11.15 C5.51 11.09, 3.57 11.1, 2.48 11.15 M2.48 11.15 C1.75 11.45, -0.34 10.2, 0 8.67 M2.48 11.15 C0.98 10.17, 0.9 10.14, 0 8.67 M0 8.67 C0.12 6.95, -0.07 4.77, 0 2.48 M0 8.67 C-0.01 7.11, -0.06 5.31, 0 2.48 M0 2.48 C-0.18 0.24, 1.21 0.53, 2.48 0 M0 2.48 C-0.3 1.96, 1.28 -0.62, 2.48 0" stroke="#8cd000" stroke-width="2" fill="none"></path></g><g stroke-linecap="round" transform="translate(722.2510900788286 286.80581671462915) rotate(0 4.954019091089549 5.573271477475714)"><path d="M2.48 0 C3.88 -0.48, 4.88 -0.22, 7.43 0 C9.08 2.47, 8.59 2.82, 9.91 2.48 C9.42 3.17, 9.8 4.61, 9.91 8.67 C10.52 9.08, 9.88 13.42, 7.43 11.15 C5.08 10.8, 3.83 10.62, 2.48 11.15 C0.64 11.56, -0.37 12.73, 0 8.67 C-0.67 7.05, 0.05 6.08, 0 2.48 C-0.58 0.24, -1.06 -1.33, 2.48 0" stroke="none" stroke-width="0" fill="#8cd000"></path><path d="M2.48 0 C3.83 0.05, 4.91 0.05, 7.43 0 M2.48 0 C4.36 -0.09, 6.32 0.1, 7.43 0 M7.43 0 C9.31 0.9, 9.44 -0.06, 9.91 2.48 M7.43 0 C8.73 -0.42, 10.86 1.64, 9.91 2.48 M9.91 2.48 C10.07 4, 10.09 5.84, 9.91 8.67 M9.91 2.48 C9.88 4.34, 10.02 6.11, 9.91 8.67 M9.91 8.67 C10.73 10.71, 8.29 11.51, 7.43 11.15 M9.91 8.67 C10.19 9.91, 10.2 11.76, 7.43 11.15 M7.43 11.15 C6.16 11.1, 5.41 11.13, 2.48 11.15 M7.43 11.15 C5.38 11.2, 3.41 11.01, 2.48 11.15 M2.48 11.15 C0.98 11.6, 0.81 10.93, 0 8.67 M2.48 11.15 C1.06 10.86, 0.38 10.62, 0 8.67 M0 8.67 C-0.09 7.13, 0.12 4.99, 0 2.48 M0 8.67 C-0.12 6.94, -0.01 5.2, 0 2.48 M0 2.48 C0.37 0.32, 0.73 -0.2, 2.48 0 M0 2.48 C0.68 0.22, 0.08 1.09, 2.48 0" stroke="#8cd000" stroke-width="2" fill="none"></path></g><g stroke-linecap="round" transform="translate(810.1849289456684 266.98974035027106) rotate(0 4.954019091089549 5.573271477475714)"><path d="M2.48 0 C3.76 0.06, 6.08 0.64, 7.43 0 C9.44 2.09, 7.58 -0.51, 9.91 2.48 C10.23 3.84, 10.15 5.8, 9.91 8.67 C10.71 12.13, 9.57 12.18, 7.43 11.15 C5.57 11.08, 3.6 11.26, 2.48 11.15 C3.36 10.84, -1.78 9.23, 0 8.67 C0.06 6.28, 0.37 4.62, 0 2.48 C0.09 -0.52, -0.73 1.25, 2.48 0" stroke="none" stroke-width="0" fill="#8cd000"></path><path d="M2.48 0 C4.3 0.17, 5.72 0.24, 7.43 0 M2.48 0 C4.15 -0.09, 5.79 0.03, 7.43 0 M7.43 0 C8.97 0.31, 10.27 0.32, 9.91 2.48 M7.43 0 C8.97 -0.23, 10.59 0.22, 9.91 2.48 M9.91 2.48 C10.2 4.17, 9.92 5.18, 9.91 8.67 M9.91 2.48 C10.05 3.81, 10.02 5.19, 9.91 8.67 M9.91 8.67 C9.69 9.52, 8.5 10.23, 7.43 11.15 M9.91 8.67 C9.78 9.27, 9.35 10.6, 7.43 11.15 M7.43 11.15 C5.75 10.94, 3.97 11.06, 2.48 11.15 M7.43 11.15 C5.86 11.13, 4.37 11.1, 2.48 11.15 M2.48 11.15 C-0.06 12.13, -0.92 10.31, 0 8.67 M2.48 11.15 C0.79 12.06, -0.26 10.06, 0 8.67 M0 8.67 C0.22 7.44, 0.1 5.85, 0 2.48 M0 8.67 C0.09 7.13, 0.04 5.7, 0 2.48 M0 2.48 C0.01 0.88, 1.74 0.15, 2.48 0 M0 2.48 C-0.96 1.32, 0.45 -0.79, 2.48 0" stroke="#8cd000" stroke-width="2" fill="none"></path></g><g stroke-linecap="round" transform="translate(889.4492344031014 237.26562580373357) rotate(0 4.954019091089549 5.573271477475714)"><path d="M2.48 0 C3.25 0.16, 4.52 0.24, 7.43 0 C6.72 -1.02, 11.33 -1.28, 9.91 2.48 C9.44 3.87, 9.99 6.87, 9.91 8.67 C7.88 8.46, 9.22 11.69, 7.43 11.15 C5.19 10.75, 4.44 11.12, 2.48 11.15 C-0.96 10.98, -1.45 7.99, 0 8.67 C-0.63 6.43, 0.17 6.1, 0 2.48 C1.42 -1.7, 1.32 0.14, 2.48 0" stroke="none" stroke-width="0" fill="#8cd000"></path><path d="M2.48 0 C3.8 0.15, 5.37 0.08, 7.43 0 M2.48 0 C4.03 0.02, 5.24 0.05, 7.43 0 M7.43 0 C8.75 -0.69, 10.06 0.25, 9.91 2.48 M7.43 0 C8.11 -0.49, 9.93 1.69, 9.91 2.48 M9.91 2.48 C9.64 4.74, 9.67 7.18, 9.91 8.67 M9.91 2.48 C9.97 4.57, 9.97 6.54, 9.91 8.67 M9.91 8.67 C10.09 10.72, 9.72 11.66, 7.43 11.15 M9.91 8.67 C8.92 10.22, 9.06 10.75, 7.43 11.15 M7.43 11.15 C5.65 11.04, 4.27 11.36, 2.48 11.15 M7.43 11.15 C6.16 11.14, 4.76 11.07, 2.48 11.15 M2.48 11.15 C0.23 11.63, 0.26 10.09, 0 8.67 M2.48 11.15 C-0.32 11.46, 1 9.3, 0 8.67 M0 8.67 C-0.23 6.76, -0.09 5.23, 0 2.48 M0 8.67 C0.06 6.24, 0.1 3.93, 0 2.48 M0 2.48 C-0.79 1.03, 1.16 -0.62, 2.48 0 M0 2.48 C-0.57 1.3, 1.85 0.53, 2.48 0" stroke="#8cd000" stroke-width="2" fill="none"></path></g><g stroke-linecap="round" transform="translate(989.7681209976649 193.91795875669996) rotate(0 4.954019091089549 5.573271477475714)"><path d="M2.48 0 C3.73 0.63, 5.85 0.05, 7.43 0 C6.56 -2.44, 11.24 1.6, 9.91 2.48 C9.26 5.42, 9.78 6.45, 9.91 8.67 C11.54 9.78, 8.65 13.43, 7.43 11.15 C5.79 10.81, 3.32 10.99, 2.48 11.15 C1.65 8.89, -1.11 12.71, 0 8.67 C-0.56 5.87, 0.48 4.61, 0 2.48 C-0.6 1.65, 1.81 -0.38, 2.48 0" stroke="none" stroke-width="0" fill="#8cd000"></path><path d="M2.48 0 C3.81 -0.1, 5.74 -0.21, 7.43 0 M2.48 0 C3.91 -0.08, 5.51 0.09, 7.43 0 M7.43 0 C8.3 -0.72, 9.96 1.03, 9.91 2.48 M7.43 0 C9.57 1.1, 8.82 -0.14, 9.91 2.48 M9.91 2.48 C9.71 3.99, 9.75 5.27, 9.91 8.67 M9.91 2.48 C9.8 3.8, 9.96 5.49, 9.91 8.67 M9.91 8.67 C10.45 9.35, 9.27 11.2, 7.43 11.15 M9.91 8.67 C9.94 9.21, 8.76 10.73, 7.43 11.15 M7.43 11.15 C5.93 11.32, 4.93 11.32, 2.48 11.15 M7.43 11.15 C5.69 11.05, 3.84 11.16, 2.48 11.15 M2.48 11.15 C0.51 12.12, 0.94 11.21, 0 8.67 M2.48 11.15 C0.1 10.65, -0.51 11.19, 0 8.67 M0 8.67 C0.16 6.52, -0.13 3.93, 0 2.48 M0 8.67 C-0.07 6.78, -0.14 4.81, 0 2.48 M0 2.48 C0.66 0.45, 0.6 0.79, 2.48 0 M0 2.48 C-0.77 1.07, 1.84 -0.34, 2.48 0" stroke="#8cd000" stroke-width="2" fill="none"></path></g><g stroke-linecap="round" transform="translate(1077.7019598645047 159.239825119073) rotate(0 4.954019091089549 5.573271477475714)"><path d="M2.48 0 C4.17 -0.41, 4.82 0.54, 7.43 0 C8.95 2.19, 11.27 0.08, 9.91 2.48 C10.33 5.23, 10.58 6.94, 9.91 8.67 C11.6 9.06, 9.81 8.92, 7.43 11.15 C5.82 11.3, 3.18 10.81, 2.48 11.15 C1.93 10.64, -1.79 11.12, 0 8.67 C0.19 8.13, 0.02 6.52, 0 2.48 C1.59 0.07, 3.37 2.15, 2.48 0" stroke="none" stroke-width="0" fill="#8cd000"></path><path d="M2.48 0 C4.1 0.24, 6.07 0.02, 7.43 0 M2.48 0 C3.52 0.09, 4.37 -0.12, 7.43 0 M7.43 0 C8.38 0.7, 9.85 -0.15, 9.91 2.48 M7.43 0 C9.8 -0.24, 9.72 1.84, 9.91 2.48 M9.91 2.48 C10.05 4.7, 9.77 7.17, 9.91 8.67 M9.91 2.48 C10.02 4.58, 9.77 6.53, 9.91 8.67 M9.91 8.67 C9.14 9.39, 9.61 11.18, 7.43 11.15 M9.91 8.67 C9.64 10.69, 9.52 10.98, 7.43 11.15 M7.43 11.15 C5.5 11.3, 3.91 10.92, 2.48 11.15 M7.43 11.15 C6.11 11.01, 4.77 11.03, 2.48 11.15 M2.48 11.15 C0.76 11.96, 0.43 9.78, 0 8.67 M2.48 11.15 C-0.22 12.28, 0.32 9.62, 0 8.67 M0 8.67 C-0.11 7.54, 0.15 5.91, 0 2.48 M0 8.67 C0.08 6.62, -0.1 4.67, 0 2.48 M0 2.48 C0.66 0.03, 1.17 0.13, 2.48 0 M0 2.48 C0.84 1.05, -0.19 -0.64, 2.48 0" stroke="#8cd000" stroke-width="2" fill="none"></path></g><g stroke-linecap="round"><g transform="translate(1083.8944837283666 167.29010614209355) rotate(0 -1.2385047727723304 0)"><path d="M0.21 0.33 C-0.26 0.34, -2.12 0.09, -2.57 -0.01" stroke="#8cd000" stroke-width="2.5" fill="none" stroke-dasharray="8 10"></path></g></g><mask></mask><g stroke-linecap="round" transform="translate(48.5044936906487 448.430689561426) rotate(0 6.811776250248158 8.669533409406768)"><path d="M8.75 2.25 C8.92 2.93, 10.06 4.21, 11.87 6.75 C12.03 7, 13.74 9.97, 11.87 11.25 C11.2 12.88, 9.5 13.72, 8.75 15.09 C7.22 16.24, 5.83 18.46, 5.25 15.09 C4.69 14.63, 2.92 13.2, 1.75 11.25 C0.32 10.08, -0.1 9.43, 1.75 6.75 C2.37 4.67, 4.59 4.46, 5.25 2.25 C6.14 -0.63, 6.31 -1.82, 8.75 2.25" stroke="none" stroke-width="0" fill="#ffffff"></path><path d="M8.75 2.25 C9.45 3.23, 9.87 4.13, 11.87 6.75 M11.87 6.75 C14.34 8.85, 13.55 8.65, 11.87 11.25 M11.87 11.25 C10.97 12.2, 10.12 13.58, 8.75 15.09 M8.75 15.09 C6.89 16.87, 7.34 16.88, 5.25 15.09 M5.25 15.09 C4.44 14.35, 3.68 13.65, 1.75 11.25 M1.75 11.25 C-0.2 8.01, -0.6 9.02, 1.75 6.75 M1.75 6.75 C2.9 5.21, 3.71 3.91, 5.25 2.25 M5.25 2.25 C7.72 -0.08, 6.51 0.08, 8.75 2.25" stroke="#8cd000" stroke-width="2.5" fill="none" stroke-dasharray="8 10"></path></g><g stroke-linecap="round" transform="translate(114.76449903397162 434.80713706092956) rotate(0 6.811776250248158 8.669533409406768)"><path d="M8.75 2.25 C9.12 3.12, 9.57 3.97, 11.87 6.75 C13.23 10.43, 15.51 7.71, 11.87 11.25 C10.89 12.55, 10.14 13.59, 8.75 15.09 C8.04 17.14, 7.45 18.86, 5.25 15.09 C4.92 13.61, 2.82 13.05, 1.75 11.25 C-0.93 8.53, 0.35 11.55, 1.75 6.75 C3.68 5.53, 4.64 4.14, 5.25 2.25 C4.46 -2.57, 9.21 -0.08, 8.75 2.25" stroke="none" stroke-width="0" fill="#ffffff"></path><path d="M8.75 2.25 C9.94 3.74, 11.09 5.47, 11.87 6.75 M11.87 6.75 C13.88 8.84, 13.15 9.48, 11.87 11.25 M11.87 11.25 C11.09 12.54, 9.81 13.37, 8.75 15.09 M8.75 15.09 C7.84 17.75, 6.28 17.82, 5.25 15.09 M5.25 15.09 C3.8 13.41, 2.33 12.35, 1.75 11.25 M1.75 11.25 C0.6 8.33, -0.41 8.26, 1.75 6.75 M1.75 6.75 C2.6 5.28, 3.96 3.88, 5.25 2.25 M5.25 2.25 C7.84 0.06, 6.3 0.28, 8.75 2.25" stroke="#8cd000" stroke-width="2.5" fill="none" stroke-dasharray="8 10"></path></g><g stroke-linecap="round" transform="translate(200.22132835526662 416.2295654693438) rotate(0 6.811776250248158 8.669533409406768)"><path d="M8.75 2.25 C9.81 3.49, 10.23 5.1, 11.87 6.75 C15.33 11.41, 12 10.82, 11.87 11.25 C11.03 12.8, 10.64 12.47, 8.75 15.09 C7.96 15.4, 8.69 17.94, 5.25 15.09 C4.1 13.39, 2.37 11.97, 1.75 11.25 C0.62 6.63, -0.13 8.92, 1.75 6.75 C2.68 5.3, 3.85 3.51, 5.25 2.25 C4.48 -1.41, 5.91 -0.7, 8.75 2.25" stroke="none" stroke-width="0" fill="#ffffff"></path><path d="M8.75 2.25 C9.97 3.7, 10.64 5.34, 11.87 6.75 M11.87 6.75 C14.49 8.34, 12.78 9.06, 11.87 11.25 M11.87 11.25 C11.29 12.42, 10.39 13.11, 8.75 15.09 M8.75 15.09 C7.95 17.85, 7.53 18.18, 5.25 15.09 M5.25 15.09 C4.55 14.13, 4.07 13.61, 1.75 11.25 M1.75 11.25 C0.89 9.64, -0.34 9.17, 1.75 6.75 M1.75 6.75 C2.89 5.01, 4.49 3.37, 5.25 2.25 M5.25 2.25 C6.04 -0.58, 6.47 0.27, 8.75 2.25" stroke="#8cd000" stroke-width="2.5" fill="none" stroke-dasharray="8 10"></path></g><g stroke-linecap="round" transform="translate(260.90806222111354 405.08302251439227) rotate(0 6.811776250248158 8.669533409406768)"><path d="M8.75 2.25 C9.22 3.01, 10.63 5.51, 11.87 6.75 C11.25 8.13, 14.04 6.69, 11.87 11.25 C10.86 12.16, 10.09 13.36, 8.75 15.09 C6.24 19.23, 6.59 15.63, 5.25 15.09 C4.45 14.11, 2.75 13.3, 1.75 11.25 C1.15 11.42, -2.57 10.84, 1.75 6.75 C1.84 5.32, 3.58 5, 5.25 2.25 C9.48 1.65, 5.1 -1.52, 8.75 2.25" stroke="none" stroke-width="0" fill="#ffffff"></path><path d="M8.75 2.25 C9.96 3.72, 10.89 5.33, 11.87 6.75 M11.87 6.75 C13.86 8.09, 13.57 8.97, 11.87 11.25 M11.87 11.25 C10.71 12.62, 9.61 13.88, 8.75 15.09 M8.75 15.09 C6.03 16.8, 6.58 17.07, 5.25 15.09 M5.25 15.09 C4.38 14.1, 3.6 12.88, 1.75 11.25 M1.75 11.25 C0.9 8.83, 0.21 9.12, 1.75 6.75 M1.75 6.75 C3.01 5.4, 4.42 3.41, 5.25 2.25 M5.25 2.25 C7.91 0.67, 6.6 0.97, 8.75 2.25" stroke="#8cd000" stroke-width="2.5" fill="none" stroke-dasharray="8 10"></path></g><g stroke-linecap="round" transform="translate(331.5028342691398 387.74395569557885) rotate(0 6.811776250248158 8.669533409406768)"><path d="M8.75 2.25 C9.52 3.81, 10.99 5.03, 11.87 6.75 C12.16 9.2, 16.13 7.93, 11.87 11.25 C11.11 12.55, 10.57 13.15, 8.75 15.09 C5.15 14.92, 8.23 15.4, 5.25 15.09 C4.12 13.84, 3.4 13.58, 1.75 11.25 C-2.27 6.56, -0.15 7.89, 1.75 6.75 C2.87 6.31, 3.49 3.72, 5.25 2.25 C6.98 1.34, 7.57 0.1, 8.75 2.25" stroke="none" stroke-width="0" fill="#ffffff"></path><path d="M8.75 2.25 C9.97 3.54, 10.69 5.39, 11.87 6.75 M11.87 6.75 C13.35 9.74, 14.48 9.78, 11.87 11.25 M11.87 11.25 C10.78 12.31, 9.92 13.91, 8.75 15.09 M8.75 15.09 C7.55 17.23, 7.86 17.3, 5.25 15.09 M5.25 15.09 C4.66 14.43, 4 13.26, 1.75 11.25 M1.75 11.25 C-0.46 8.06, -0.31 8.56, 1.75 6.75 M1.75 6.75 C3.2 5.01, 4.51 3.2, 5.25 2.25 M5.25 2.25 C6.63 -0.78, 6.32 0.11, 8.75 2.25" stroke="#8cd000" stroke-width="2.5" fill="none" stroke-dasharray="8 10"></path></g><g stroke-linecap="round" transform="translate(405.81312063548336 367.92787933122065) rotate(0 6.811776250248158 8.669533409406768)"><path d="M8.75 2.25 C10.37 4.26, 11.63 6.09, 11.87 6.75 C15.21 6.55, 13.61 7.17, 11.87 11.25 C10.32 12.57, 9.82 14.68, 8.75 15.09 C5.47 18.47, 7.35 14.76, 5.25 15.09 C3.46 13.88, 2.23 12.13, 1.75 11.25 C-0.66 8.13, -1.19 7.71, 1.75 6.75 C3.14 5.3, 4.34 2.75, 5.25 2.25 C7.25 -2.6, 4.78 1.07, 8.75 2.25" stroke="none" stroke-width="0" fill="#ffffff"></path><path d="M8.75 2.25 C9.25 3.05, 9.93 4.24, 11.87 6.75 M11.87 6.75 C12.75 8.06, 13.56 8.57, 11.87 11.25 M11.87 11.25 C11.15 12.48, 10.25 12.99, 8.75 15.09 M8.75 15.09 C6.99 17.85, 7.22 17.38, 5.25 15.09 M5.25 15.09 C4.65 14.09, 3.7 13.37, 1.75 11.25 M1.75 11.25 C-0.51 8.09, -0.93 9.03, 1.75 6.75 M1.75 6.75 C2.67 5.23, 4.24 3.92, 5.25 2.25 M5.25 2.25 C7.01 -0.18, 7.27 0.28, 8.75 2.25" stroke="#8cd000" stroke-width="2.5" fill="none" stroke-dasharray="8 10"></path></g><g stroke-linecap="round" transform="translate(482.6004165473715 343.1577838757728) rotate(0 6.811776250248158 8.669533409406768)"><path d="M8.75 2.25 C8.84 2.81, 10.19 4.52, 11.87 6.75 C14.86 11.58, 13.61 7.79, 11.87 11.25 C11.13 12.04, 10.68 12.96, 8.75 15.09 C5.93 17.25, 8.08 18.93, 5.25 15.09 C4.63 14.83, 3.86 13.44, 1.75 11.25 C1.56 7.83, 1.33 8.31, 1.75 6.75 C2.95 5.69, 2.97 4.37, 5.25 2.25 C7.19 0.01, 7.21 0.25, 8.75 2.25" stroke="none" stroke-width="0" fill="#ffffff"></path><path d="M8.75 2.25 C10.08 4.01, 11.01 5.84, 11.87 6.75 M11.87 6.75 C12.63 8.14, 14.03 9.44, 11.87 11.25 M11.87 11.25 C10.59 12.46, 9.57 13.76, 8.75 15.09 M8.75 15.09 C6.44 17.06, 7.61 17.87, 5.25 15.09 M5.25 15.09 C4.52 14.12, 3.64 13.35, 1.75 11.25 M1.75 11.25 C-0.66 9.45, -0.12 8.84, 1.75 6.75 M1.75 6.75 C2.94 5.35, 3.95 3.44, 5.25 2.25 M5.25 2.25 C7.7 -0.27, 7.39 0.47, 8.75 2.25" stroke="#8cd000" stroke-width="2.5" fill="none" stroke-dasharray="8 10"></path></g><g stroke-linecap="round" transform="translate(560.6262172320321 302.07743280959005) rotate(0 6.811776250248158 8.669533409406768)"><path d="M8.75 2.25 C9.48 4.43, 11.26 5.7, 11.87 6.75 C15.08 11.16, 13.01 7.77, 11.87 11.25 C11.46 12.06, 10.95 12.36, 8.75 15.09 C8.78 16.6, 9.52 16.23, 5.25 15.09 C3.8 13.56, 3.66 12.24, 1.75 11.25 C1.92 9.41, -0.1 10.54, 1.75 6.75 C3.28 4.65, 4.08 3.77, 5.25 2.25 C6.44 1.25, 7.1 -0.56, 8.75 2.25" stroke="none" stroke-width="0" fill="#ffffff"></path><path d="M8.75 2.25 C9.47 3.42, 10.13 4.16, 11.87 6.75 M11.87 6.75 C14.22 8.55, 14.14 8.74, 11.87 11.25 M11.87 11.25 C11.36 11.99, 10.48 12.66, 8.75 15.09 M8.75 15.09 C7.07 17.34, 7.08 17.43, 5.25 15.09 M5.25 15.09 C3.9 13.68, 2.8 12.48, 1.75 11.25 M1.75 11.25 C-0.9 9.7, 0.39 9.46, 1.75 6.75 M1.75 6.75 C2.82 5.61, 3.9 4.03, 5.25 2.25 M5.25 2.25 C6.91 0.6, 7.59 -0.76, 8.75 2.25" stroke="#8cd000" stroke-width="2.5" fill="none" stroke-dasharray="8 10"></path></g><g stroke-linecap="round" transform="translate(642.3675322350095 282.47105000992576) rotate(0 6.811776250248158 8.669533409406768)"><path d="M8.75 2.25 C9.81 3.6, 10.4 3.38, 11.87 6.75 C13.63 7.8, 14.18 6.79, 11.87 11.25 C11.44 11.77, 9.88 13.44, 8.75 15.09 C9.51 15.85, 5.73 18.12, 5.25 15.09 C5.13 14.66, 3.22 13.27, 1.75 11.25 C0.94 9.28, 2.23 11.52, 1.75 6.75 C2.04 4.78, 3.21 4.08, 5.25 2.25 C7.36 -1.59, 5.51 -2.44, 8.75 2.25" stroke="none" stroke-width="0" fill="#ffffff"></path><path d="M8.75 2.25 C9.59 3.38, 10.67 4.66, 11.87 6.75 M11.87 6.75 C12.82 9.03, 13.87 9.51, 11.87 11.25 M11.87 11.25 C10.71 12.33, 9.94 13.93, 8.75 15.09 M8.75 15.09 C6.73 17.27, 7.48 17.58, 5.25 15.09 M5.25 15.09 C3.99 13.51, 2.26 11.83, 1.75 11.25 M1.75 11.25 C0 8.97, -0.47 8.31, 1.75 6.75 M1.75 6.75 C3.14 5.06, 4.58 3.43, 5.25 2.25 M5.25 2.25 C7.56 0.2, 7.79 -0.24, 8.75 2.25" stroke="#8cd000" stroke-width="2.5" fill="none" stroke-dasharray="8 10"></path></g><g stroke-linecap="round"><g transform="translate(1244.9001041887773 116.51141045842556) rotate(0 47.06318136535083 0)"><path d="M0.9 -0.2 C16.61 -0.38, 78.01 -0.94, 93.65 -0.85 M-0.09 -1.34 C15.47 -1.42, 76.72 0.32, 92.45 0.24" stroke="#8cd000" stroke-width="2" fill="none"></path></g></g><mask></mask><g stroke-linecap="round"><g transform="translate(1249.8541232798668 173.48263000595549) rotate(0 45.8246765925785 -0.6192523863861936)"><path d="M0.24 -1.04 C15.74 -1.28, 76.38 -1.25, 91.75 -1.32 M-1.09 1.03 C14.36 0.98, 75.32 0.39, 90.86 0.18" stroke="#8cd000" stroke-width="2" fill="none"></path></g></g><mask></mask><g stroke-linecap="round"><g transform="translate(1248.6156185070945 288.66357387378764) rotate(0 43.34766704703361 0)"><path d="M-0.34 -0.26 C14.2 -0.46, 72.01 -0.95, 86.4 -0.95" stroke="#8cd000" stroke-width="2.5" fill="none" stroke-dasharray="8 10"></path></g></g><mask></mask><g stroke-linecap="round"><g transform="translate(1246.1386089615498 403.84451774162005) rotate(0 43.34766704703361 1.2385047727723872)"><path d="M-0.89 0.42 C13.73 0.55, 72.34 0.95, 86.77 1.43" stroke="#8cd000" stroke-width="2.5" fill="none" stroke-dasharray="1.5 8"></path></g></g><mask></mask><g stroke-linecap="round" transform="translate(1281.435994985563 393.93647955944084) rotate(0 6.811776250248158 8.669533409406768)"><path d="M8.75 2.25 C9.03 3.86, 11.33 4.85, 11.87 6.75 C11.5 9.41, 14.78 7.84, 11.87 11.25 C10.68 12.74, 10.76 12.86, 8.75 15.09 C5.11 16.01, 4.44 15, 5.25 15.09 C3.75 13.87, 3.59 13.14, 1.75 11.25 C-0.27 9.3, -1.8 8.18, 1.75 6.75 C2.66 5.76, 3.25 4.43, 5.25 2.25 C8.12 -0.81, 4.92 0.33, 8.75 2.25" stroke="none" stroke-width="0" fill="#8cd000"></path><path d="M8.75 2.25 C9.72 3.64, 10.67 4.67, 11.87 6.75 M11.87 6.75 C13.91 9.04, 13.49 9.18, 11.87 11.25 M11.87 11.25 C10.85 12.38, 10.03 13.98, 8.75 15.09 M8.75 15.09 C6.62 17.63, 6.09 16.59, 5.25 15.09 M5.25 15.09 C3.99 13.59, 2.77 12.27, 1.75 11.25 M1.75 11.25 C0.86 8.91, 0.7 8.31, 1.75 6.75 M1.75 6.75 C2.99 5.39, 4.32 3.51, 5.25 2.25 M5.25 2.25 C6.84 0.36, 7.3 0, 8.75 2.25" stroke="#8cd000" stroke-width="2.5" fill="none" stroke-dasharray="8 10"></path></g><g stroke-linecap="round" transform="translate(1284.532256917494 280.61329285076727) rotate(0 4.954019091089549 5.573271477475714)"><path d="M2.48 0 C5 -0.4, 5.68 -0.13, 7.43 0 C10.64 -0.1, 11.38 -1.71, 9.91 2.48 C10.56 3.6, 10.02 6.02, 9.91 8.67 C8.67 10.93, 9.23 12.98, 7.43 11.15 C6.37 11.26, 3.95 11.66, 2.48 11.15 C-0.16 9.27, -2.15 9.79, 0 8.67 C-0.25 6.84, -0.49 3.89, 0 2.48 C-0.45 1.59, -0.86 -1.56, 2.48 0" stroke="none" stroke-width="0" fill="#8cd000"></path><path d="M2.48 0 C4.34 -0.08, 5.94 -0.11, 7.43 0 M2.48 0 C4.36 0.14, 6.29 -0.04, 7.43 0 M7.43 0 C8.95 0, 9.54 0.71, 9.91 2.48 M7.43 0 C8.04 0.91, 9.66 1.41, 9.91 2.48 M9.91 2.48 C10.05 4.64, 9.7 6.31, 9.91 8.67 M9.91 2.48 C9.98 4.59, 10.07 6.56, 9.91 8.67 M9.91 8.67 C10.3 10.63, 8.52 10.76, 7.43 11.15 M9.91 8.67 C9.64 10.44, 8.94 10.77, 7.43 11.15 M7.43 11.15 C6.52 11.07, 5.47 11.11, 2.48 11.15 M7.43 11.15 C5.77 11.11, 4.03 11.25, 2.48 11.15 M2.48 11.15 C0.29 11.81, 0.9 11.18, 0 8.67 M2.48 11.15 C0.3 10.14, 0.92 9.61, 0 8.67 M0 8.67 C0.18 6.43, 0.1 4.04, 0 2.48 M0 8.67 C0.09 7.16, -0.01 5.55, 0 2.48 M0 2.48 C0.55 -0.02, 1.76 -0.72, 2.48 0 M0 2.48 C0.86 -0.28, 1.21 0.47, 2.48 0" stroke="#8cd000" stroke-width="2" fill="none"></path></g><g transform="translate(1249.1898487409017 187.1061825064518) rotate(0 24.093318737744767 15.233509218435131)"><text x="0" y="0" font-family="Virgil, Segoe UI Emoji" font-size="24.373614749496216px" fill="#8cd000" text-anchor="start" style="white-space: pre;" direction="ltr" dominant-baseline="text-before-edge">IQB</text></g><g transform="translate(1245.4743344225844 300.9192155740211) rotate(0 39.4243199977509 15.233509218435131)"><text x="0" y="0" font-family="Virgil, Segoe UI Emoji" font-size="24.373614749496216px" fill="#8cd000" text-anchor="start" style="white-space: pre;" direction="ltr" dominant-baseline="text-before-edge">Median</text></g><g transform="translate(1241.0357154884216 421.75509504417346) rotate(0 58.6672899582137 30.467018436870262)"><text x="0" y="0" font-family="Virgil, Segoe UI Emoji" font-size="24.373614749496216px" fill="#8cd000" text-anchor="start" style="white-space: pre;" direction="ltr" dominant-baseline="text-before-edge">Ergebnis </text><text x="0" y="30.46701843687027" font-family="Virgil, Segoe UI Emoji" font-size="24.373614749496216px" fill="#8cd000" text-anchor="start" style="white-space: pre;" direction="ltr" dominant-baseline="text-before-edge">Schülerin 1</text></g></svg>