<svg version="1.1" xmlns="http://www.w3.org/2000/svg" viewBox="0 0 1323.984217294814 762.4009164417472" width="3971.9526518844423" height="2287.2027493252417">
  <!-- svg-source:excalidraw -->
  
  <defs>
    <style class="style-fonts">
      @font-face {
        font-family: "Virgil";
        src: url("https://excalidraw.com/Virgil.woff2");
      }
      @font-face {
        font-family: "Cascadia";
        src: url("https://excalidraw.com/Cascadia.woff2");
      }
      @font-face {
        font-family: "Assistant";
        src: url("https://excalidraw.com/Assistant-Regular.woff2");
      }
    </style>
    
  </defs>
  <g stroke-linecap="round"><g transform="translate(262.9367382291795 695.5072840294616) rotate(0 416.4219973917177 -1.4125989583774299)"><path d="M0.09 -0.08 C138.62 -0.58, 693.29 -2.32, 832.15 -2.66 M-1.32 -1.16 C137.52 -1.48, 695.5 -0.54, 834.5 -1.04" stroke="#8cd000" stroke-width="2" fill="none"></path></g><g transform="translate(262.9367382291795 695.5072840294616) rotate(0 416.4219973917177 -1.4125989583774299)"><path d="M806.32 9.24 C816.89 4.15, 828.03 2.09, 834.5 -1.04 M806.32 9.24 C816.17 6.5, 826.73 2.05, 834.5 -1.04" stroke="#8cd000" stroke-width="2" fill="none"></path></g><g transform="translate(262.9367382291795 695.5072840294616) rotate(0 416.4219973917177 -1.4125989583774299)"><path d="M806.31 -11.28 C816.95 -8.55, 828.09 -2.8, 834.5 -1.04 M806.31 -11.28 C816.27 -6.7, 826.83 -3.82, 834.5 -1.04" stroke="#8cd000" stroke-width="2" fill="none"></path></g></g><mask></mask><g stroke-linecap="round"><g transform="translate(286.9367382291795 733.5072840294616) rotate(0 2.842170943040401e-14 -215.48731643865554)"><path d="M-1.09 -0.46 C-1.3 -72.55, -0.91 -360.24, -0.89 -431.99 M0.53 -1.74 C0.67 -73.78, 1.21 -359.68, 1.35 -430.99" stroke="#8cd000" stroke-width="2" fill="none"></path></g><g transform="translate(286.9367382291795 733.5072840294616) rotate(0 2.842170943040401e-14 -215.48731643865554)"><path d="M11.56 -402.78 C7.31 -413.6, 3.03 -422.97, 1.35 -430.99 M11.56 -402.78 C8.53 -410.91, 5.29 -419.08, 1.35 -430.99" stroke="#8cd000" stroke-width="2" fill="none"></path></g><g transform="translate(286.9367382291795 733.5072840294616) rotate(0 2.842170943040401e-14 -215.48731643865554)"><path d="M-8.96 -402.82 C-6.48 -413.44, -4.04 -422.79, 1.35 -430.99 M-8.96 -402.82 C-5.78 -410.81, -2.8 -418.97, 1.35 -430.99" stroke="#8cd000" stroke-width="2" fill="none"></path></g></g><mask></mask><g transform="translate(807.5340644279847 651.4319054614001) rotate(0 143.99496413618374 16.13859202554289)"><text x="0" y="0" font-family="Virgil, Segoe UI Emoji" font-size="25.821747240868604px" fill="#8cd000" text-anchor="start" style="white-space: pre;" direction="ltr" dominant-baseline="text-before-edge">Lösungshäufigkeit in %</text></g><g transform="translate(33.20560854656037 382.85626307480675) rotate(0 121.82881164550781 17)"><text x="0" y="0" font-family="Virgil, Segoe UI Emoji" font-size="27.200000000000006px" fill="#8cd000" text-anchor="start" style="white-space: pre;" direction="ltr" dominant-baseline="text-before-edge">Aufgabe 1: Dreieck</text></g><g stroke-linecap="round"><g transform="translate(356.9367382291795 698.5072840294616) rotate(0 -0.5 9.5)"><path d="M-0.3 -0.15 C-0.56 3.02, -1.19 16.18, -1.28 19.38 M0.54 -0.71 C0.45 2.29, 0.09 15.21, -0.19 18.61" stroke="#8cd000" stroke-width="2" fill="none"></path></g></g><mask></mask><g stroke-linecap="round"><g transform="translate(432.9367382291795 697.5072840294616) rotate(0 0 8.5)"><path d="M-0.48 0.42 C-0.42 3.32, -0.18 14.53, -0.17 17.24 M0.28 0.16 C0.29 2.9, -0.76 13.57, -0.69 16.4" stroke="#8cd000" stroke-width="2" fill="none"></path></g></g><mask></mask><g stroke-linecap="round"><g transform="translate(500.6073349608975 696.9860583028461) rotate(0 0 9.493935506681282)"><path d="M0.36 0.21 C0.31 3.35, -0.15 15.93, -0.15 19.03 M-0.11 -0.16 C-0.27 3.06, -0.72 16.51, -0.67 19.74" stroke="#8cd000" stroke-width="2" fill="none"></path></g></g><mask></mask><g stroke-linecap="round"><g transform="translate(571.6309153512052 700.5072840294616) rotate(0 -0.25151612332967943 5.993935506681282)"><path d="M-0.02 -0.11 C-0.15 -0.45, -0.32 -3.63, -0.31 -1.53 C-0.31 0.58, 0.02 10.16, 0.03 12.54 M-0.69 -0.64 C-0.69 -0.7, 0.65 -3.35, 0.76 -1.1 C0.86 1.16, 0.08 10.54, -0.05 12.9" stroke="#8cd000" stroke-width="2" fill="none"></path></g></g><mask></mask><g stroke-linecap="round"><g transform="translate(643.8586001439626 697.7518751114653) rotate(0 0 8.5)"><path d="M0.01 -0.37 C-0.01 2.51, -0.19 14.39, -0.13 17.37 M-0.65 0.63 C-0.76 3.35, -0.77 13.92, -0.62 16.6" stroke="#8cd000" stroke-width="2" fill="none"></path></g></g><mask></mask><g stroke-linecap="round"><g transform="translate(718.8254535603214 696.6078529669184) rotate(0 0 8.5)"><path d="M0.13 -0.17 C0.1 2.62, 0.28 13.75, 0.33 16.61 M-0.47 -0.73 C-0.58 2.13, -0.06 14.06, 0.07 17.11" stroke="#8cd000" stroke-width="2" fill="none"></path></g></g><mask></mask><g stroke-linecap="round"><g transform="translate(964.4229504935638 698.0681513486421) rotate(0 0 8.5)"><path d="M0.4 -0.23 C0.46 2.7, 0.29 14.37, 0.26 17.17 M-0.06 -0.83 C-0.04 1.97, -0.05 13.33, -0.04 16.29" stroke="#8cd000" stroke-width="2" fill="none"></path></g></g><mask></mask><g stroke-linecap="round"><g transform="translate(803.4284269227701 699.3056755420636) rotate(0 0 7.493935506681282)"><path d="M0.03 -0.47 C-0.02 2.18, -0.22 12.89, -0.15 15.47 M-0.61 0.47 C-0.76 3.02, -0.81 12.23, -0.66 14.75" stroke="#8cd000" stroke-width="2" fill="none"></path></g></g><mask></mask><g stroke-linecap="round"><g transform="translate(879.1727555136913 699.7856895068629) rotate(0 0 7.493935506681282)"><path d="M-0.27 0.29 C-0.22 2.74, 0.47 12.36, 0.5 14.74 M0.59 -0.03 C0.6 2.48, 0.5 12.82, 0.33 15.31" stroke="#8cd000" stroke-width="2" fill="none"></path></g></g><mask></mask><g stroke-linecap="round"><g transform="translate(1043.704216835721 697.8956876209015) rotate(0 0 8.5)"><path d="M0.02 -0.23 C-0.02 2.56, -0.47 14.31, -0.51 17.23 M-0.64 -0.83 C-0.49 2.03, 0.46 13.52, 0.47 16.39" stroke="#8cd000" stroke-width="2" fill="none"></path></g></g><mask></mask><g stroke-linecap="round"><g transform="translate(1313.984217294814 10) rotate(0 0 0)"><path d="M0 0 C0 0, 0 0, 0 0 M0 0 C0 0, 0 0, 0 0" stroke="#8cd000" stroke-width="2" fill="none"></path></g></g><mask></mask><g transform="translate(31.188984375660084 463.52011990769677) rotate(0 120.6592025756836 17)"><text x="0" y="0" font-family="Virgil, Segoe UI Emoji" font-size="27.200000000000006px" fill="#8cd000" text-anchor="start" style="white-space: pre;" direction="ltr" dominant-baseline="text-before-edge">Aufgabe 2: Würfel</text></g><g transform="translate(10 536.9752657433189) rotate(0 131.56640625 17)"><text x="0" y="0" font-family="Virgil, Segoe UI Emoji" font-size="27.200000000000006px" fill="#8cd000" text-anchor="start" style="white-space: pre;" direction="ltr" dominant-baseline="text-before-edge">Aufgabe 3: Addition</text></g><g transform="translate(244.64202519478937 606.1926147038091) rotate(0 11.179200172424316 17)"><text x="0" y="0" font-family="Virgil, Segoe UI Emoji" font-size="27.200000000000006px" fill="#8cd000" text-anchor="start" style="white-space: pre;" direction="ltr" dominant-baseline="text-before-edge">...</text></g><g stroke-linecap="round" transform="translate(398.0982535265379 382.587085706695) rotate(0 24.72048177160366 12.007091146207472)"><path d="M0 0 C12.58 -0.65, 23.98 -0.93, 49.44 0 M0 0 C11.57 0.63, 23.54 -0.19, 49.44 0 M49.44 0 C49.19 5.33, 49.81 10.8, 49.44 24.01 M49.44 0 C48.86 10.02, 49.63 18.76, 49.44 24.01 M49.44 24.01 C38.29 23.76, 27.75 23.45, 0 24.01 M49.44 24.01 C35.45 23.85, 21.33 23.74, 0 24.01 M0 24.01 C0.02 17.77, 0.31 10.22, 0 0 M0 24.01 C-0.25 17.97, -0.41 11.47, 0 0" stroke="#8cd000" stroke-width="2" fill="none"></path></g><g transform="translate(626.8722490610126 727.4009164417472) rotate(0 22.450000762939453 12.5)"><text x="0" y="0" font-family="Virgil, Segoe UI Emoji" font-size="20px" fill="#8cd000" text-anchor="start" style="white-space: pre;" direction="ltr" dominant-baseline="text-before-edge">50%</text></g><g transform="translate(1016.2065201218486 723.1366018782228) rotate(0 25.860000610351562 12.5)"><text x="0" y="0" font-family="Virgil, Segoe UI Emoji" font-size="20px" fill="#8cd000" text-anchor="start" style="white-space: pre;" direction="ltr" dominant-baseline="text-before-edge">100%</text></g><g stroke-linecap="round"><g transform="translate(449.09862110937087 394.6792248081364) rotate(0 14.000665242008381 0)"><path d="M0 0 C7.03 -0.44, 15.87 -0.34, 28 0 M0 0 C9.71 -0.1, 19.48 0.39, 28 0" stroke="#8cd000" stroke-width="2" fill="none"></path></g></g><mask></mask><g stroke-linecap="round"><g transform="translate(398.0373714032226 395.2085191771937) rotate(0 -15.647802329303431 0.41178427182376254)"><path d="M0 0 C-8.4 -0.39, -16.19 -0.67, -31.3 0.82 M0 0 C-8.96 0.37, -17.88 0.15, -31.3 0.82" stroke="#8cd000" stroke-width="2" fill="none"></path></g></g><mask></mask><g stroke-linecap="round"><g transform="translate(432.57026417228093 384.14299486333596) rotate(0 -0.15733965769652514 10.856436381061684)"><path d="M0 0 C0 6.6, 0.39 14.5, -0.31 21.71 M0 0 C-0.49 8.48, 0.05 16.13, -0.31 21.71" stroke="#8cd000" stroke-width="2" fill="none"></path></g></g><mask></mask><g stroke-linecap="round" transform="translate(492.2768125757494 386.42386965816854) rotate(0 5.506888019379119 7.394963911737648)"><path d="M5.21 0.02 L10.95 8.01 L6.35 15.57 L0.48 7.63" stroke="none" stroke-width="0" fill="#8cd000" fill-rule="evenodd"></path><path d="M6 0 C7.45 3.16, 9.1 5.11, 11.01 8 M6 0 C7.26 1.98, 8.37 3.82, 11.01 8 M11.01 8 C8.94 9.9, 7.28 12.72, 6 14.79 M11.01 8 C9.68 9.66, 8.44 11.36, 6 14.79 M6 14.79 C3.58 12.01, 2.1 10.33, 0 8 M6 14.79 C4.74 13.26, 3.19 11.45, 0 8 M0 8 C2.65 5.2, 4.02 2.46, 6 0 M0 8 C2.08 5.41, 4.08 2.72, 6 0" stroke="#8cd000" stroke-width="2" fill="none"></path></g><g stroke-linecap="round" transform="translate(455.27055610135636 464.8021440891396) rotate(0 113.00234586232062 12.988775386473662)"><path d="M0 0 C76.58 -2.36, 154.85 -1.29, 226 0 M0 0 C54.5 2.32, 108.41 1.86, 226 0 M226 0 C227.36 8.9, 225.31 19.88, 226 25.98 M226 0 C226.46 9.71, 226.23 18.62, 226 25.98 M226 25.98 C153.04 25.78, 78.03 25.82, 0 25.98 M226 25.98 C153.61 25.62, 80.83 25.32, 0 25.98 M0 25.98 C-1.64 19.39, -1.08 12.72, 0 0 M0 25.98 C0 18.58, -0.89 9.68, 0 0" stroke="#8cd000" stroke-width="2" fill="none"></path></g><g stroke-linecap="round"><g transform="translate(685.6048396214887 477.79091947561324) rotate(0 50.65622400724715 0)"><path d="M0 0 C33.72 -2.06, 66.34 -0.96, 101.31 0 M0 0 C21.08 0.73, 40.74 0.64, 101.31 0" stroke="#8cd000" stroke-width="2" fill="none"></path></g></g><mask></mask><g stroke-linecap="round"><g transform="translate(452.6728010240617 478.6568378347114) rotate(0 -45.893673032206834 0)"><path d="M0 0 C-28.46 2.26, -58.59 1.76, -91.79 0 M0 0 C-20.47 0.63, -42.16 -0.42, -91.79 0" stroke="#8cd000" stroke-width="2" fill="none"></path></g></g><mask></mask><g stroke-linecap="round"><g transform="translate(567.839942784128 467.39989916643424) rotate(0 0 10.391020309178941)"><path d="M0 0 C0.8 4.7, 0.98 9.52, 0 20.78 M0 0 C0.33 5.6, 0 10.99, 0 20.78" stroke="#8cd000" stroke-width="2" fill="none"></path></g></g><mask></mask><g stroke-linecap="round" transform="translate(724.0572884443557 535.8074495351955) rotate(0 113.00234586232068 12.988775386473662)"><path d="M0 0 C79.5 1.12, 162.41 1.18, 226 0 M0 0 C77.9 0.02, 154.34 -1.17, 226 0 M226 0 C227.82 7.84, 225.6 17.34, 226 25.98 M226 0 C225.8 9.09, 225.44 17.2, 226 25.98 M226 25.98 C152.74 26.92, 80.93 24.13, 0 25.98 M226 25.98 C175.53 25.56, 123.54 26.19, 0 25.98 M0 25.98 C-1.89 18.46, -0.14 9.26, 0 0 M0 25.98 C-0.13 19.71, -0.71 13.57, 0 0" stroke="#8cd000" stroke-width="2" fill="none"></path></g><g stroke-linecap="round"><g transform="translate(954.3915719644881 548.7962249216691) rotate(0 23.956597198321674 0)"><path d="M0 0 C12 0.08, 24.16 -0.51, 47.91 0 M0 0 C14.86 -0.57, 30.67 0.24, 47.91 0" stroke="#8cd000" stroke-width="2" fill="none"></path></g></g><mask></mask><g stroke-linecap="round"><g transform="translate(721.4595333670609 549.6621432807672) rotate(0 -45.893673032206834 0)"><path d="M0 0 C-27.26 -0.91, -55.85 0.89, -91.79 0 M0 0 C-31.66 -0.15, -63.44 -0.03, -91.79 0" stroke="#8cd000" stroke-width="2" fill="none"></path></g></g><mask></mask><g stroke-linecap="round"><g transform="translate(893.7086358910367 537.4845278259753) rotate(0 0.4603383932573024 12.69271227546568)"><path d="M0 0 C0.53 8.26, 1.08 14.82, 0.92 25.39 M0 0 C0.24 5.67, 0.34 10.38, 0.92 25.39" stroke="#8cd000" stroke-width="2" fill="none"></path></g></g><mask></mask><g stroke-linecap="round" transform="translate(639.3997887244923 470.39595556387553) rotate(0 5.506888019379119 7.394963911737648)"><path d="M5.26 -0.71 L10.99 7.38 L5.71 14.62 L0.02 7.23" stroke="none" stroke-width="0" fill="#8cd000" fill-rule="evenodd"></path><path d="M6 0 C7.32 2.3, 9.04 4.95, 11.01 8 M6 0 C7.38 2.02, 8.55 4.17, 11.01 8 M11.01 8 C9.37 10.7, 7.32 13.21, 6 14.79 M11.01 8 C10.16 9.3, 8.94 10.91, 6 14.79 M6 14.79 C3.82 12.03, 1.84 9.44, 0 8 M6 14.79 C4.76 13.14, 3.07 11.54, 0 8 M0 8 C1.83 5.89, 2.77 4.22, 6 0 M0 8 C2.2 4.88, 4.67 1.77, 6 0" stroke="#8cd000" stroke-width="2" fill="none"></path></g><g stroke-linecap="round" transform="translate(903.8569292720001 541.4012610099313) rotate(0 5.506888019379176 7.394963911737648)"><path d="M6.92 0.35 L11.84 8.03 L6.16 14.08 L0.85 7.57" stroke="none" stroke-width="0" fill="#8cd000" fill-rule="evenodd"></path><path d="M6 0 C7.56 2.79, 9.98 5.94, 11.01 8 M6 0 C8.05 2.89, 9.92 6.2, 11.01 8 M11.01 8 C9.1 10.08, 8.37 11.85, 6 14.79 M11.01 8 C10.09 9.36, 8.99 10.84, 6 14.79 M6 14.79 C4.42 12.32, 2.6 10.26, 0 8 M6 14.79 C3.61 12.08, 1.61 9.77, 0 8 M0 8 C1.2 6.16, 3.77 3.38, 6 0 M0 8 C1.37 6.33, 2.7 3.91, 6 0" stroke="#8cd000" stroke-width="2" fill="none"></path></g><g stroke-linecap="round"><g transform="translate(544.0400462510977 365.53826625313627) rotate(0 -18.231173790651383 8.933776040384288)"><path d="M-0.42 -1 C-3.59 -0.59, -13.95 1.38, -18.91 2.66 C-23.87 3.93, -27.19 4.3, -30.19 6.65 C-33.18 9, -35.89 14.82, -36.87 16.74 M1.57 1.09 C-1.73 1.11, -14.21 -0.43, -19.61 0.72 C-25.01 1.87, -27.97 5.23, -30.84 7.99 C-33.72 10.74, -35.76 15.46, -36.84 17.25" stroke="#8cd000" stroke-width="2" fill="none"></path></g><g transform="translate(544.0400462510977 365.53826625313627) rotate(0 -18.231173790651383 8.933776040384288)"><path d="M-35.89 10.93 C-36.71 13.13, -36.28 14.95, -36.84 17.25 M-35.89 10.93 C-36.1 12.91, -36.35 14.96, -36.84 17.25" stroke="#8cd000" stroke-width="2" fill="none"></path></g><g transform="translate(544.0400462510977 365.53826625313627) rotate(0 -18.231173790651383 8.933776040384288)"><path d="M-32.05 13.01 C-34.06 14.56, -34.82 15.73, -36.84 17.25 M-32.05 13.01 C-33.42 14.33, -34.83 15.74, -36.84 17.25" stroke="#8cd000" stroke-width="2" fill="none"></path></g></g><mask></mask><g transform="translate(551.1546322801844 354.9290944876875) rotate(0 41.583320898004445 9.131965184027024)"><text x="0" y="0" font-family="Virgil, Segoe UI Emoji" font-size="14.611144294443235px" fill="#8cd000" text-anchor="start" style="white-space: pre;" direction="ltr" dominant-baseline="text-before-edge">Ihre Klasse</text></g><g stroke-linecap="round"><g transform="translate(471.93027296879035 327.0653800476633) rotate(0 -22.946836516103417 20.782040618357854)"><path d="M-0.19 -0.89 C-3.97 0.95, -17.25 5.88, -23.71 11.19 C-30.16 16.5, -35.16 25.99, -38.9 30.98 C-42.65 35.97, -45.07 39.39, -46.17 41.15 M-1.75 1.25 C-5.62 3.28, -18.59 8.07, -24.82 12.7 C-31.06 17.32, -35.64 24.1, -39.18 28.99 C-42.72 33.88, -44.8 39.88, -46.07 42.04" stroke="#8cd000" stroke-width="2" fill="none"></path></g><g transform="translate(471.93027296879035 327.0653800476633) rotate(0 -22.946836516103417 20.782040618357854)"><path d="M-45.41 35.68 C-46.02 36.86, -45.72 38.89, -46.07 42.04 M-45.41 35.68 C-45.56 37.93, -45.64 40.35, -46.07 42.04" stroke="#8cd000" stroke-width="2" fill="none"></path></g><g transform="translate(471.93027296879035 327.0653800476633) rotate(0 -22.946836516103417 20.782040618357854)"><path d="M-41.48 37.59 C-42.93 38.36, -43.47 39.98, -46.07 42.04 M-41.48 37.59 C-43.03 39.15, -44.5 40.88, -46.07 42.04" stroke="#8cd000" stroke-width="2" fill="none"></path></g></g><mask></mask><g transform="translate(480.4082443274021 316.206014774294) rotate(0 116.2170430556917 9.131965184027024)"><text x="0" y="0" font-family="Virgil, Segoe UI Emoji" font-size="14.611144294443235px" fill="#8cd000" text-anchor="start" style="white-space: pre;" direction="ltr" dominant-baseline="text-before-edge">Alle Klassen Ihres Bundeslandes</text></g></svg>